<mxfile host="app.diagrams.net" modified="2023-10-15T11:58:59.491Z" agent="Mozilla/5.0 (Windows NT 10.0; Win64; x64) AppleWebKit/537.36 (KHTML, like Gecko) Chrome/118.0.0.0 Safari/537.36" etag="C9uGk5JivL5-06mggtX-" version="22.0.4" type="device">
  <diagram id="oIpXLAZz7gIT_1_cjFCh" name="Page-1">
    <mxGraphModel dx="3850" dy="1617" grid="1" gridSize="10" guides="1" tooltips="1" connect="1" arrows="1" fold="1" page="1" pageScale="1" pageWidth="850" pageHeight="1100" math="0" shadow="0">
      <root>
        <mxCell id="0" />
        <mxCell id="1" parent="0" />
        <mxCell id="e6_sfdX5LnjFO37yu5ji-51" style="edgeStyle=orthogonalEdgeStyle;rounded=0;orthogonalLoop=1;jettySize=auto;html=1;entryX=0;entryY=0.5;entryDx=0;entryDy=0;" parent="1" target="e6_sfdX5LnjFO37yu5ji-22" edge="1">
          <mxGeometry relative="1" as="geometry">
            <mxPoint x="-210" y="710" as="sourcePoint" />
          </mxGeometry>
        </mxCell>
        <mxCell id="e6_sfdX5LnjFO37yu5ji-53" style="edgeStyle=orthogonalEdgeStyle;rounded=0;orthogonalLoop=1;jettySize=auto;html=1;entryX=0;entryY=0.5;entryDx=0;entryDy=0;" parent="1" target="e6_sfdX5LnjFO37yu5ji-30" edge="1">
          <mxGeometry relative="1" as="geometry">
            <mxPoint x="-210" y="710" as="sourcePoint" />
            <Array as="points">
              <mxPoint x="-160" y="710" />
              <mxPoint x="-160" y="790" />
            </Array>
          </mxGeometry>
        </mxCell>
        <mxCell id="e6_sfdX5LnjFO37yu5ji-133" style="edgeStyle=orthogonalEdgeStyle;rounded=0;orthogonalLoop=1;jettySize=auto;html=1;entryX=0.5;entryY=0;entryDx=0;entryDy=0;dashed=1;" parent="1" source="e6_sfdX5LnjFO37yu5ji-6" target="e6_sfdX5LnjFO37yu5ji-26" edge="1">
          <mxGeometry relative="1" as="geometry" />
        </mxCell>
        <mxCell id="e6_sfdX5LnjFO37yu5ji-140" style="edgeStyle=orthogonalEdgeStyle;rounded=0;orthogonalLoop=1;jettySize=auto;html=1;entryX=0;entryY=0.75;entryDx=0;entryDy=0;dashed=1;" parent="1" source="e6_sfdX5LnjFO37yu5ji-6" target="e6_sfdX5LnjFO37yu5ji-7" edge="1">
          <mxGeometry relative="1" as="geometry" />
        </mxCell>
        <mxCell id="e6_sfdX5LnjFO37yu5ji-152" style="edgeStyle=orthogonalEdgeStyle;rounded=0;orthogonalLoop=1;jettySize=auto;html=1;dashed=1;" parent="1" source="e6_sfdX5LnjFO37yu5ji-6" target="e6_sfdX5LnjFO37yu5ji-76" edge="1">
          <mxGeometry relative="1" as="geometry">
            <Array as="points">
              <mxPoint x="150" y="345" />
              <mxPoint x="230" y="345" />
            </Array>
          </mxGeometry>
        </mxCell>
        <mxCell id="vFYDKp4Bj59iPNKs51TE-11" style="edgeStyle=orthogonalEdgeStyle;rounded=0;orthogonalLoop=1;jettySize=auto;html=1;dashed=1;" edge="1" parent="1" source="e6_sfdX5LnjFO37yu5ji-6" target="e6_sfdX5LnjFO37yu5ji-73">
          <mxGeometry relative="1" as="geometry" />
        </mxCell>
        <mxCell id="vFYDKp4Bj59iPNKs51TE-15" style="edgeStyle=orthogonalEdgeStyle;rounded=0;orthogonalLoop=1;jettySize=auto;html=1;entryX=0.5;entryY=1;entryDx=0;entryDy=0;dashed=1;" edge="1" parent="1" source="e6_sfdX5LnjFO37yu5ji-6" target="vFYDKp4Bj59iPNKs51TE-10">
          <mxGeometry relative="1" as="geometry">
            <mxPoint x="150" y="200" as="targetPoint" />
            <Array as="points">
              <mxPoint x="110" y="230" />
              <mxPoint x="260" y="230" />
            </Array>
          </mxGeometry>
        </mxCell>
        <mxCell id="vFYDKp4Bj59iPNKs51TE-18" style="edgeStyle=orthogonalEdgeStyle;rounded=0;orthogonalLoop=1;jettySize=auto;html=1;dashed=1;" edge="1" parent="1" source="e6_sfdX5LnjFO37yu5ji-6">
          <mxGeometry relative="1" as="geometry">
            <mxPoint x="440" y="200" as="targetPoint" />
            <Array as="points">
              <mxPoint x="110" y="230" />
              <mxPoint x="440" y="230" />
            </Array>
          </mxGeometry>
        </mxCell>
        <mxCell id="e6_sfdX5LnjFO37yu5ji-6" value="Class" style="rounded=0;whiteSpace=wrap;html=1;" parent="1" vertex="1">
          <mxGeometry x="50" y="390" width="120" height="60" as="geometry" />
        </mxCell>
        <mxCell id="e6_sfdX5LnjFO37yu5ji-139" style="edgeStyle=orthogonalEdgeStyle;rounded=0;orthogonalLoop=1;jettySize=auto;html=1;entryX=0.5;entryY=0;entryDx=0;entryDy=0;dashed=1;" parent="1" source="e6_sfdX5LnjFO37yu5ji-7" target="e6_sfdX5LnjFO37yu5ji-18" edge="1">
          <mxGeometry relative="1" as="geometry" />
        </mxCell>
        <mxCell id="e6_sfdX5LnjFO37yu5ji-7" value="Abstract Class" style="rounded=0;whiteSpace=wrap;html=1;" parent="1" vertex="1">
          <mxGeometry x="250" y="380" width="120" height="60" as="geometry" />
        </mxCell>
        <mxCell id="e6_sfdX5LnjFO37yu5ji-8" value="Interface" style="rounded=0;whiteSpace=wrap;html=1;" parent="1" vertex="1">
          <mxGeometry x="470" y="390" width="120" height="60" as="geometry" />
        </mxCell>
        <mxCell id="e6_sfdX5LnjFO37yu5ji-18" value="Abstract Methods" style="rounded=0;whiteSpace=wrap;html=1;" parent="1" vertex="1">
          <mxGeometry x="250" y="470" width="120" height="60" as="geometry" />
        </mxCell>
        <mxCell id="e6_sfdX5LnjFO37yu5ji-22" value="Private" style="rounded=0;whiteSpace=wrap;html=1;" parent="1" vertex="1">
          <mxGeometry x="-110" y="650" width="120" height="60" as="geometry" />
        </mxCell>
        <mxCell id="e6_sfdX5LnjFO37yu5ji-68" style="edgeStyle=orthogonalEdgeStyle;rounded=0;orthogonalLoop=1;jettySize=auto;html=1;entryX=0;entryY=0.5;entryDx=0;entryDy=0;" parent="1" source="e6_sfdX5LnjFO37yu5ji-23" target="e6_sfdX5LnjFO37yu5ji-55" edge="1">
          <mxGeometry relative="1" as="geometry" />
        </mxCell>
        <mxCell id="e6_sfdX5LnjFO37yu5ji-23" value="Public" style="rounded=0;whiteSpace=wrap;html=1;" parent="1" vertex="1">
          <mxGeometry x="40" y="650" width="120" height="60" as="geometry" />
        </mxCell>
        <mxCell id="e6_sfdX5LnjFO37yu5ji-69" style="edgeStyle=orthogonalEdgeStyle;rounded=0;orthogonalLoop=1;jettySize=auto;html=1;" parent="1" source="e6_sfdX5LnjFO37yu5ji-24" target="e6_sfdX5LnjFO37yu5ji-55" edge="1">
          <mxGeometry relative="1" as="geometry" />
        </mxCell>
        <mxCell id="e6_sfdX5LnjFO37yu5ji-24" value="Protected" style="rounded=0;whiteSpace=wrap;html=1;" parent="1" vertex="1">
          <mxGeometry x="200" y="650" width="120" height="60" as="geometry" />
        </mxCell>
        <mxCell id="e6_sfdX5LnjFO37yu5ji-134" style="edgeStyle=orthogonalEdgeStyle;rounded=0;orthogonalLoop=1;jettySize=auto;html=1;dashed=1;" parent="1" source="e6_sfdX5LnjFO37yu5ji-26" target="e6_sfdX5LnjFO37yu5ji-22" edge="1">
          <mxGeometry relative="1" as="geometry" />
        </mxCell>
        <mxCell id="e6_sfdX5LnjFO37yu5ji-135" value="" style="edgeStyle=orthogonalEdgeStyle;rounded=0;orthogonalLoop=1;jettySize=auto;html=1;dashed=1;" parent="1" source="e6_sfdX5LnjFO37yu5ji-26" target="e6_sfdX5LnjFO37yu5ji-23" edge="1">
          <mxGeometry relative="1" as="geometry">
            <Array as="points">
              <mxPoint x="100" y="590" />
              <mxPoint x="100" y="590" />
            </Array>
          </mxGeometry>
        </mxCell>
        <mxCell id="e6_sfdX5LnjFO37yu5ji-136" style="edgeStyle=orthogonalEdgeStyle;rounded=0;orthogonalLoop=1;jettySize=auto;html=1;entryX=0.25;entryY=0;entryDx=0;entryDy=0;dashed=1;" parent="1" source="e6_sfdX5LnjFO37yu5ji-26" target="e6_sfdX5LnjFO37yu5ji-24" edge="1">
          <mxGeometry relative="1" as="geometry" />
        </mxCell>
        <mxCell id="e6_sfdX5LnjFO37yu5ji-137" style="edgeStyle=orthogonalEdgeStyle;rounded=0;orthogonalLoop=1;jettySize=auto;html=1;entryX=0.5;entryY=0;entryDx=0;entryDy=0;dashed=1;" parent="1" source="e6_sfdX5LnjFO37yu5ji-26" target="e6_sfdX5LnjFO37yu5ji-29" edge="1">
          <mxGeometry relative="1" as="geometry" />
        </mxCell>
        <mxCell id="e6_sfdX5LnjFO37yu5ji-26" value="Access Modifiers" style="rounded=0;whiteSpace=wrap;html=1;" parent="1" vertex="1">
          <mxGeometry x="50" y="510" width="120" height="60" as="geometry" />
        </mxCell>
        <mxCell id="e6_sfdX5LnjFO37yu5ji-70" style="edgeStyle=orthogonalEdgeStyle;rounded=0;orthogonalLoop=1;jettySize=auto;html=1;" parent="1" source="e6_sfdX5LnjFO37yu5ji-29" target="e6_sfdX5LnjFO37yu5ji-55" edge="1">
          <mxGeometry relative="1" as="geometry" />
        </mxCell>
        <mxCell id="e6_sfdX5LnjFO37yu5ji-29" value="Internal" style="rounded=0;whiteSpace=wrap;html=1;" parent="1" vertex="1">
          <mxGeometry x="400" y="650" width="120" height="60" as="geometry" />
        </mxCell>
        <mxCell id="e6_sfdX5LnjFO37yu5ji-30" value="Properties" style="rounded=0;whiteSpace=wrap;html=1;" parent="1" vertex="1">
          <mxGeometry x="-110" y="750" width="120" height="60" as="geometry" />
        </mxCell>
        <mxCell id="e6_sfdX5LnjFO37yu5ji-48" style="edgeStyle=orthogonalEdgeStyle;rounded=0;orthogonalLoop=1;jettySize=auto;html=1;entryX=0.5;entryY=0;entryDx=0;entryDy=0;" parent="1" source="e6_sfdX5LnjFO37yu5ji-47" target="e6_sfdX5LnjFO37yu5ji-7" edge="1">
          <mxGeometry relative="1" as="geometry" />
        </mxCell>
        <mxCell id="e6_sfdX5LnjFO37yu5ji-49" style="edgeStyle=orthogonalEdgeStyle;rounded=0;orthogonalLoop=1;jettySize=auto;html=1;entryX=0.5;entryY=0;entryDx=0;entryDy=0;" parent="1" source="e6_sfdX5LnjFO37yu5ji-47" target="e6_sfdX5LnjFO37yu5ji-8" edge="1">
          <mxGeometry relative="1" as="geometry" />
        </mxCell>
        <mxCell id="e6_sfdX5LnjFO37yu5ji-47" value="Abstraction" style="rhombus;whiteSpace=wrap;html=1;" parent="1" vertex="1">
          <mxGeometry x="300" y="260" width="210" height="80" as="geometry" />
        </mxCell>
        <mxCell id="e6_sfdX5LnjFO37yu5ji-52" value="" style="endArrow=none;html=1;rounded=0;entryX=0.5;entryY=1;entryDx=0;entryDy=0;exitX=0.5;exitY=0;exitDx=0;exitDy=0;dashed=1;" parent="1" source="e6_sfdX5LnjFO37yu5ji-30" target="e6_sfdX5LnjFO37yu5ji-22" edge="1">
          <mxGeometry width="50" height="50" relative="1" as="geometry">
            <mxPoint x="120" y="740" as="sourcePoint" />
            <mxPoint x="170" y="690" as="targetPoint" />
          </mxGeometry>
        </mxCell>
        <mxCell id="e6_sfdX5LnjFO37yu5ji-54" value="Encapsulation" style="rhombus;whiteSpace=wrap;html=1;" parent="1" vertex="1">
          <mxGeometry x="-410" y="670" width="210" height="80" as="geometry" />
        </mxCell>
        <mxCell id="vFYDKp4Bj59iPNKs51TE-4" style="edgeStyle=orthogonalEdgeStyle;rounded=0;orthogonalLoop=1;jettySize=auto;html=1;entryX=0;entryY=0.75;entryDx=0;entryDy=0;dashed=1;" edge="1" parent="1" source="e6_sfdX5LnjFO37yu5ji-55" target="vFYDKp4Bj59iPNKs51TE-3">
          <mxGeometry relative="1" as="geometry" />
        </mxCell>
        <mxCell id="e6_sfdX5LnjFO37yu5ji-55" value="Inheritance" style="rhombus;whiteSpace=wrap;html=1;" parent="1" vertex="1">
          <mxGeometry x="215" y="780" width="210" height="80" as="geometry" />
        </mxCell>
        <mxCell id="e6_sfdX5LnjFO37yu5ji-84" style="edgeStyle=orthogonalEdgeStyle;rounded=0;orthogonalLoop=1;jettySize=auto;html=1;entryX=0;entryY=0.25;entryDx=0;entryDy=0;" parent="1" source="e6_sfdX5LnjFO37yu5ji-59" target="e6_sfdX5LnjFO37yu5ji-78" edge="1">
          <mxGeometry relative="1" as="geometry" />
        </mxCell>
        <mxCell id="e6_sfdX5LnjFO37yu5ji-85" style="edgeStyle=orthogonalEdgeStyle;rounded=0;orthogonalLoop=1;jettySize=auto;html=1;entryX=0;entryY=0.75;entryDx=0;entryDy=0;" parent="1" source="e6_sfdX5LnjFO37yu5ji-59" target="e6_sfdX5LnjFO37yu5ji-80" edge="1">
          <mxGeometry relative="1" as="geometry" />
        </mxCell>
        <mxCell id="e6_sfdX5LnjFO37yu5ji-59" value="Polymorphism" style="rhombus;whiteSpace=wrap;html=1;" parent="1" vertex="1">
          <mxGeometry x="-770" y="380" width="210" height="80" as="geometry" />
        </mxCell>
        <mxCell id="e6_sfdX5LnjFO37yu5ji-60" value="Aggregation" style="rounded=0;whiteSpace=wrap;html=1;" parent="1" vertex="1">
          <mxGeometry x="110" y="970" width="120" height="60" as="geometry" />
        </mxCell>
        <mxCell id="e6_sfdX5LnjFO37yu5ji-61" value="Composition" style="rounded=0;whiteSpace=wrap;html=1;" parent="1" vertex="1">
          <mxGeometry x="390" y="970" width="120" height="60" as="geometry" />
        </mxCell>
        <mxCell id="e6_sfdX5LnjFO37yu5ji-149" style="edgeStyle=orthogonalEdgeStyle;rounded=0;orthogonalLoop=1;jettySize=auto;html=1;dashed=1;" parent="1" source="e6_sfdX5LnjFO37yu5ji-66" target="e6_sfdX5LnjFO37yu5ji-123" edge="1">
          <mxGeometry relative="1" as="geometry" />
        </mxCell>
        <mxCell id="vFYDKp4Bj59iPNKs51TE-12" style="edgeStyle=orthogonalEdgeStyle;rounded=0;orthogonalLoop=1;jettySize=auto;html=1;entryX=0;entryY=0.5;entryDx=0;entryDy=0;dashed=1;" edge="1" parent="1" source="e6_sfdX5LnjFO37yu5ji-66" target="e6_sfdX5LnjFO37yu5ji-73">
          <mxGeometry relative="1" as="geometry" />
        </mxCell>
        <mxCell id="e6_sfdX5LnjFO37yu5ji-66" value="Constructor" style="rounded=0;whiteSpace=wrap;html=1;" parent="1" vertex="1">
          <mxGeometry x="-120" y="240" width="120" height="60" as="geometry" />
        </mxCell>
        <mxCell id="e6_sfdX5LnjFO37yu5ji-144" style="edgeStyle=orthogonalEdgeStyle;rounded=0;orthogonalLoop=1;jettySize=auto;html=1;entryX=1;entryY=0.5;entryDx=0;entryDy=0;dashed=1;" parent="1" source="e6_sfdX5LnjFO37yu5ji-72" target="e6_sfdX5LnjFO37yu5ji-80" edge="1">
          <mxGeometry relative="1" as="geometry" />
        </mxCell>
        <mxCell id="e6_sfdX5LnjFO37yu5ji-145" style="edgeStyle=orthogonalEdgeStyle;rounded=0;orthogonalLoop=1;jettySize=auto;html=1;entryX=1;entryY=0.5;entryDx=0;entryDy=0;dashed=1;" parent="1" source="e6_sfdX5LnjFO37yu5ji-72" target="e6_sfdX5LnjFO37yu5ji-78" edge="1">
          <mxGeometry relative="1" as="geometry" />
        </mxCell>
        <mxCell id="e6_sfdX5LnjFO37yu5ji-147" style="edgeStyle=orthogonalEdgeStyle;rounded=0;orthogonalLoop=1;jettySize=auto;html=1;entryX=0.25;entryY=1;entryDx=0;entryDy=0;dashed=1;" parent="1" source="e6_sfdX5LnjFO37yu5ji-72" target="e6_sfdX5LnjFO37yu5ji-77" edge="1">
          <mxGeometry relative="1" as="geometry" />
        </mxCell>
        <mxCell id="e6_sfdX5LnjFO37yu5ji-72" value="Method" style="rounded=0;whiteSpace=wrap;html=1;" parent="1" vertex="1">
          <mxGeometry x="-320" y="390" width="120" height="60" as="geometry" />
        </mxCell>
        <mxCell id="e6_sfdX5LnjFO37yu5ji-73" value="Field" style="rounded=0;whiteSpace=wrap;html=1;" parent="1" vertex="1">
          <mxGeometry x="50" y="130" width="120" height="60" as="geometry" />
        </mxCell>
        <mxCell id="e6_sfdX5LnjFO37yu5ji-76" value="New (Class)" style="rounded=0;whiteSpace=wrap;html=1;" parent="1" vertex="1">
          <mxGeometry x="170" y="240" width="120" height="60" as="geometry" />
        </mxCell>
        <mxCell id="e6_sfdX5LnjFO37yu5ji-77" value="Method Call" style="rounded=0;whiteSpace=wrap;html=1;" parent="1" vertex="1">
          <mxGeometry x="-290" y="240" width="120" height="60" as="geometry" />
        </mxCell>
        <mxCell id="e6_sfdX5LnjFO37yu5ji-78" value="Override" style="rounded=0;whiteSpace=wrap;html=1;" parent="1" vertex="1">
          <mxGeometry x="-510" y="350" width="120" height="60" as="geometry" />
        </mxCell>
        <mxCell id="e6_sfdX5LnjFO37yu5ji-80" value="Virtual" style="rounded=0;whiteSpace=wrap;html=1;" parent="1" vertex="1">
          <mxGeometry x="-510" y="460" width="120" height="60" as="geometry" />
        </mxCell>
        <mxCell id="e6_sfdX5LnjFO37yu5ji-146" style="edgeStyle=orthogonalEdgeStyle;rounded=0;orthogonalLoop=1;jettySize=auto;html=1;entryX=1;entryY=0.5;entryDx=0;entryDy=0;dashed=1;" parent="1" source="e6_sfdX5LnjFO37yu5ji-112" target="e6_sfdX5LnjFO37yu5ji-72" edge="1">
          <mxGeometry relative="1" as="geometry" />
        </mxCell>
        <mxCell id="e6_sfdX5LnjFO37yu5ji-148" style="edgeStyle=orthogonalEdgeStyle;rounded=0;orthogonalLoop=1;jettySize=auto;html=1;entryX=0.5;entryY=1;entryDx=0;entryDy=0;dashed=1;" parent="1" source="e6_sfdX5LnjFO37yu5ji-112" target="e6_sfdX5LnjFO37yu5ji-66" edge="1">
          <mxGeometry relative="1" as="geometry" />
        </mxCell>
        <mxCell id="e6_sfdX5LnjFO37yu5ji-112" value="Object" style="rounded=0;whiteSpace=wrap;html=1;" parent="1" vertex="1">
          <mxGeometry x="-150" y="360" width="160" height="100" as="geometry" />
        </mxCell>
        <mxCell id="e6_sfdX5LnjFO37yu5ji-121" value="Value type" style="rounded=0;whiteSpace=wrap;html=1;" parent="1" vertex="1">
          <mxGeometry x="-240" y="40" width="120" height="60" as="geometry" />
        </mxCell>
        <mxCell id="e6_sfdX5LnjFO37yu5ji-122" value="Reference Type" style="rounded=0;whiteSpace=wrap;html=1;" parent="1" vertex="1">
          <mxGeometry y="40" width="120" height="60" as="geometry" />
        </mxCell>
        <mxCell id="e6_sfdX5LnjFO37yu5ji-151" style="edgeStyle=orthogonalEdgeStyle;rounded=0;orthogonalLoop=1;jettySize=auto;html=1;entryX=0.5;entryY=1;entryDx=0;entryDy=0;dashed=1;" parent="1" source="e6_sfdX5LnjFO37yu5ji-123" target="e6_sfdX5LnjFO37yu5ji-121" edge="1">
          <mxGeometry relative="1" as="geometry" />
        </mxCell>
        <mxCell id="e6_sfdX5LnjFO37yu5ji-123" value="Variable" style="rounded=0;whiteSpace=wrap;html=1;" parent="1" vertex="1">
          <mxGeometry x="-120" y="140" width="120" height="60" as="geometry" />
        </mxCell>
        <mxCell id="e6_sfdX5LnjFO37yu5ji-141" value="" style="endArrow=none;html=1;rounded=0;entryX=0.378;entryY=0.932;entryDx=0;entryDy=0;exitX=0.75;exitY=0;exitDx=0;exitDy=0;dashed=1;entryPerimeter=0;" parent="1" source="e6_sfdX5LnjFO37yu5ji-60" target="e6_sfdX5LnjFO37yu5ji-55" edge="1">
          <mxGeometry width="50" height="50" relative="1" as="geometry">
            <mxPoint x="-40" y="760" as="sourcePoint" />
            <mxPoint x="-40" y="720" as="targetPoint" />
          </mxGeometry>
        </mxCell>
        <mxCell id="e6_sfdX5LnjFO37yu5ji-142" value="" style="endArrow=none;html=1;rounded=0;entryX=1;entryY=1;entryDx=0;entryDy=0;exitX=0.5;exitY=0;exitDx=0;exitDy=0;dashed=1;" parent="1" source="e6_sfdX5LnjFO37yu5ji-61" target="e6_sfdX5LnjFO37yu5ji-55" edge="1">
          <mxGeometry width="50" height="50" relative="1" as="geometry">
            <mxPoint x="210" y="990" as="sourcePoint" />
            <mxPoint x="304" y="865" as="targetPoint" />
          </mxGeometry>
        </mxCell>
        <mxCell id="e6_sfdX5LnjFO37yu5ji-143" value="" style="endArrow=none;html=1;rounded=0;entryX=1;entryY=0.5;entryDx=0;entryDy=0;exitX=0;exitY=0.5;exitDx=0;exitDy=0;dashed=1;" parent="1" source="e6_sfdX5LnjFO37yu5ji-61" target="e6_sfdX5LnjFO37yu5ji-60" edge="1">
          <mxGeometry width="50" height="50" relative="1" as="geometry">
            <mxPoint x="460" y="980" as="sourcePoint" />
            <mxPoint x="383" y="850" as="targetPoint" />
          </mxGeometry>
        </mxCell>
        <mxCell id="e6_sfdX5LnjFO37yu5ji-150" style="edgeStyle=orthogonalEdgeStyle;rounded=0;orthogonalLoop=1;jettySize=auto;html=1;entryX=0.597;entryY=1.001;entryDx=0;entryDy=0;entryPerimeter=0;dashed=1;" parent="1" source="e6_sfdX5LnjFO37yu5ji-123" target="e6_sfdX5LnjFO37yu5ji-122" edge="1">
          <mxGeometry relative="1" as="geometry" />
        </mxCell>
        <mxCell id="e6_sfdX5LnjFO37yu5ji-155" value="Seal the classes" style="text;html=1;strokeColor=none;fillColor=none;align=center;verticalAlign=middle;whiteSpace=wrap;rounded=0;" parent="1" vertex="1">
          <mxGeometry x="-340" y="765" width="60" height="30" as="geometry" />
        </mxCell>
        <mxCell id="e6_sfdX5LnjFO37yu5ji-156" value="The basis of everything" style="text;html=1;strokeColor=none;fillColor=none;align=center;verticalAlign=middle;whiteSpace=wrap;rounded=0;" parent="1" vertex="1">
          <mxGeometry x="-120" y="470" width="70" height="30" as="geometry" />
        </mxCell>
        <mxCell id="e6_sfdX5LnjFO37yu5ji-157" style="edgeStyle=orthogonalEdgeStyle;rounded=0;orthogonalLoop=1;jettySize=auto;html=1;entryX=0.007;entryY=0.364;entryDx=0;entryDy=0;entryPerimeter=0;dashed=1;" parent="1" source="e6_sfdX5LnjFO37yu5ji-112" target="e6_sfdX5LnjFO37yu5ji-6" edge="1">
          <mxGeometry relative="1" as="geometry" />
        </mxCell>
        <mxCell id="e6_sfdX5LnjFO37yu5ji-159" value="Multiple version" style="text;html=1;strokeColor=none;fillColor=none;align=center;verticalAlign=middle;whiteSpace=wrap;rounded=0;" parent="1" vertex="1">
          <mxGeometry x="-700" y="470" width="60" height="30" as="geometry" />
        </mxCell>
        <mxCell id="e6_sfdX5LnjFO37yu5ji-160" value="Parents child" style="text;html=1;strokeColor=none;fillColor=none;align=center;verticalAlign=middle;whiteSpace=wrap;rounded=0;" parent="1" vertex="1">
          <mxGeometry x="300" y="870" width="60" height="30" as="geometry" />
        </mxCell>
        <mxCell id="e6_sfdX5LnjFO37yu5ji-161" value="Blue print" style="text;html=1;strokeColor=none;fillColor=none;align=center;verticalAlign=middle;whiteSpace=wrap;rounded=0;" parent="1" vertex="1">
          <mxGeometry x="510" y="270" width="60" height="30" as="geometry" />
        </mxCell>
        <mxCell id="vFYDKp4Bj59iPNKs51TE-5" style="edgeStyle=orthogonalEdgeStyle;rounded=0;orthogonalLoop=1;jettySize=auto;html=1;entryX=0.5;entryY=0;entryDx=0;entryDy=0;dashed=1;" edge="1" parent="1" source="vFYDKp4Bj59iPNKs51TE-1" target="vFYDKp4Bj59iPNKs51TE-3">
          <mxGeometry relative="1" as="geometry" />
        </mxCell>
        <mxCell id="vFYDKp4Bj59iPNKs51TE-6" style="edgeStyle=orthogonalEdgeStyle;rounded=0;orthogonalLoop=1;jettySize=auto;html=1;entryX=0.75;entryY=0;entryDx=0;entryDy=0;dashed=1;" edge="1" parent="1" source="vFYDKp4Bj59iPNKs51TE-1" target="vFYDKp4Bj59iPNKs51TE-2">
          <mxGeometry relative="1" as="geometry" />
        </mxCell>
        <mxCell id="vFYDKp4Bj59iPNKs51TE-1" value="Coupling" style="rounded=0;whiteSpace=wrap;html=1;" vertex="1" parent="1">
          <mxGeometry x="610" y="660" width="120" height="60" as="geometry" />
        </mxCell>
        <mxCell id="vFYDKp4Bj59iPNKs51TE-7" style="edgeStyle=orthogonalEdgeStyle;rounded=0;orthogonalLoop=1;jettySize=auto;html=1;dashed=1;" edge="1" parent="1" source="vFYDKp4Bj59iPNKs51TE-2" target="e6_sfdX5LnjFO37yu5ji-61">
          <mxGeometry relative="1" as="geometry" />
        </mxCell>
        <mxCell id="vFYDKp4Bj59iPNKs51TE-2" value="Loose coupling" style="rounded=0;whiteSpace=wrap;html=1;" vertex="1" parent="1">
          <mxGeometry x="670" y="910" width="120" height="60" as="geometry" />
        </mxCell>
        <mxCell id="vFYDKp4Bj59iPNKs51TE-3" value="Tight coupling" style="rounded=0;whiteSpace=wrap;html=1;" vertex="1" parent="1">
          <mxGeometry x="500" y="830" width="120" height="60" as="geometry" />
        </mxCell>
        <mxCell id="vFYDKp4Bj59iPNKs51TE-8" style="edgeStyle=orthogonalEdgeStyle;rounded=0;orthogonalLoop=1;jettySize=auto;html=1;entryX=0.414;entryY=-0.004;entryDx=0;entryDy=0;entryPerimeter=0;dashed=1;" edge="1" parent="1" source="vFYDKp4Bj59iPNKs51TE-2" target="e6_sfdX5LnjFO37yu5ji-60">
          <mxGeometry relative="1" as="geometry" />
        </mxCell>
        <mxCell id="vFYDKp4Bj59iPNKs51TE-9" value="Responsibilities" style="rounded=0;whiteSpace=wrap;html=1;" vertex="1" parent="1">
          <mxGeometry x="160" y="10" width="120" height="60" as="geometry" />
        </mxCell>
        <mxCell id="vFYDKp4Bj59iPNKs51TE-22" style="edgeStyle=orthogonalEdgeStyle;rounded=0;orthogonalLoop=1;jettySize=auto;html=1;entryX=0.25;entryY=1;entryDx=0;entryDy=0;" edge="1" parent="1" source="vFYDKp4Bj59iPNKs51TE-10" target="vFYDKp4Bj59iPNKs51TE-19">
          <mxGeometry relative="1" as="geometry" />
        </mxCell>
        <mxCell id="vFYDKp4Bj59iPNKs51TE-10" value="Single Responsibility" style="rounded=0;whiteSpace=wrap;html=1;" vertex="1" parent="1">
          <mxGeometry x="200" y="130" width="120" height="60" as="geometry" />
        </mxCell>
        <mxCell id="vFYDKp4Bj59iPNKs51TE-13" style="edgeStyle=orthogonalEdgeStyle;rounded=0;orthogonalLoop=1;jettySize=auto;html=1;entryX=0.571;entryY=-0.037;entryDx=0;entryDy=0;entryPerimeter=0;" edge="1" parent="1" source="vFYDKp4Bj59iPNKs51TE-9" target="vFYDKp4Bj59iPNKs51TE-10">
          <mxGeometry relative="1" as="geometry" />
        </mxCell>
        <mxCell id="vFYDKp4Bj59iPNKs51TE-16" value="Roles" style="rounded=0;whiteSpace=wrap;html=1;" vertex="1" parent="1">
          <mxGeometry x="410" y="140" width="120" height="60" as="geometry" />
        </mxCell>
        <mxCell id="vFYDKp4Bj59iPNKs51TE-19" value="Cohension" style="rounded=0;whiteSpace=wrap;html=1;" vertex="1" parent="1">
          <mxGeometry x="345" width="120" height="60" as="geometry" />
        </mxCell>
      </root>
    </mxGraphModel>
  </diagram>
</mxfile>
